<svg xmlns="http://www.w3.org/2000/svg" viewBox="0 0 521.1 52.6" enable-background="new 0 0 521.1 52.6"><path fill="#FF6138" d="M4.9 25.1h-.9c-2.6 0-4-1.4-4-4v-1.8c0-2.6 1.4-4 4-4h.9v-1.8c0-11.8 11.7-13.5 15.6-13.5h1.2c2.6 0 4 1.4 4 4v2.7c0 2.6-1.4 3.7-4 4-1.6.1-4.3.4-4.3 3.6v1.2h2.9c2.6 0 4 1.4 4 4v1.8c0 2.6-1.4 4-4 4h-2.9v22.8c0 2.6-1.4 4-4 4h-4.5c-2.6 0-4-1.4-4-4v-23zm45.6-11.3c11.7 0 21.1 7.8 21.1 19.5 0 11.6-9.4 19.3-21 19.3s-21-7.7-21-19.3c-.1-11.6 9.3-19.5 20.9-19.5zm0 28.5c4.5 0 8.4-3.4 8.4-8.9 0-5.6-3.9-9.1-8.4-9.1s-8.4 3.5-8.4 9.1c0 5.5 3.9 8.9 8.4 8.9zm29.5-23.7c0-2.6 1.4-4 4-4h4.5c2.6 0 4 1.4 4 4v17.8c0 3.5 1.4 4.9 4 4.9 5.3 0 7.8-4.7 7.8-10.2v-12.5c0-2.6 1.4-4 4-4h4.5c2.6 0 4 1.4 4 4v29.2c0 2.6-1.4 4-4 4h-4c-2.6 0-3.9-1.4-3.9-4v-.6c0-.4.1-.9.1-.9h-.1c-2 4-6.6 6.4-11.6 6.4-7.3 0-13.2-3.5-13.2-13.9v-20.2zm47.7 0c0-2.6 1.4-4 4-4h4c2.6 0 3.9 1.4 3.9 4v.6c0 .4-.1.9-.1.9h.1c1.7-2.9 5.3-6.4 11.8-6.4 7.5 0 13.3 3.5 13.3 13.9v20.1c0 2.6-1.4 4-4 4h-4.5c-2.6 0-4-1.4-4-4v-17.7c0-3.5-1.4-4.9-4.1-4.9-5.5 0-8.1 4.6-8.1 9.9v12.8c0 2.6-1.4 4-4 4h-4.5c-2.6 0-4-1.4-4-4v-29.2zm62.5-4.8c7.5 0 9.7 3.7 9.7 3.7h.1s-.1-.7-.1-1.7v-11.6c0-2.6 1.4-4 4-4h4.5c2.6 0 4 1.4 4 4v43.6c0 2.6-1.4 4-4 4h-3.7c-2.6 0-4-1.2-4-3.6v-.4c0-.1.1-.5.1-.5h-.1s-3.1 5.4-10.7 5.4c-10.1 0-16.7-7.9-16.7-19.4-.1-11.8 7-19.5 16.9-19.5zm2.8 28.5c3.7 0 7.3-2.7 7.3-9.1 0-4.5-2.4-8.9-7.3-8.9-3.9 0-7.3 3.2-7.3 8.9.1 5.5 3 9.1 7.3 9.1zm47.6-28.5c11 0 17.1 7.8 17.1 17.7 0 1.9-1.7 4.1-4.2 4.1h-19.5c.9 4.5 4.7 6.6 8.6 6.6 2.5 0 4.9-.8 6.8-1.7 2.4-1.1 4.1-.8 5.3 1.5l1 1.9c1.2 2.2.8 4.2-1.4 5.4-2.7 1.5-7.1 3.3-12.7 3.3-13.2 0-20.4-9.6-20.4-19.4.1-10.9 7.5-19.4 19.4-19.4zm4.8 14.7c0-3-1.9-5.5-5.1-5.5-3.6 0-5.3 2.6-6 5.5h11.1zm21.1-9.9c0-2.6 1.4-4 4-4h4c2.6 0 4 1.4 4 4v2.4c0 1.2-.1 2.3-.1 2.3h.1c1.2-3.8 5.2-8.9 9.9-8.9 2.5 0 3.4 1.4 3.4 4v4c0 2.6-1.4 4-4 4-5.9 0-8.8 5-8.8 11.1v10.4c0 2.6-1.4 4-4 4h-4.5c-2.6 0-4-1.4-4-4v-29.3zm31.7 25.2l1.1-1.7c1.4-2.1 3-2.3 5.5-1.2 1.8.8 4.1 1.9 7.1 1.9 2.5 0 3.4-.9 3.4-2.1 0-4.3-17.4-2.2-17.4-15.3 0-7.6 6.8-11.7 15.4-11.7 4.7 0 8.2 1.3 10.5 2.4 2.2 1.1 2.5 3.1 1.4 5.3l-.9 1.7c-1.1 2.3-2.8 2.7-5.3 1.7-1.7-.6-3.9-1.4-6.3-1.4-2.7 0-3.3.9-3.3 1.9 0 4.2 17.4 2.1 17.4 15 0 6.9-5.8 12.2-15.3 12.2-5.5 0-9.7-1.9-12.3-3.4-2.1-1.1-2.3-3.2-1-5.3zm37.8-39.6c0-2.6 1.4-4 4-4h4.5c2.6 0 4 1.4 4 4v22.7h3.5l5.8-9.6c1.1-1.9 2.5-2.7 4.7-2.7h4.8c3.2 0 4.3 2.1 2.6 4.8l-7.9 12.1v.1l9.4 15.3c1.7 2.7.6 4.8-2.7 4.8h-5.4c-2.2 0-3.6-.9-4.7-2.8l-6.3-11.6h-3.9v10.4c0 2.6-1.4 4-4 4h-4.4c-2.6 0-4-1.4-4-4v-43.5zm44.3 14.4c0-2.6 1.4-4 4-4h4.5c2.6 0 4 1.4 4 4v29.2c0 2.6-1.4 4-4 4h-4.5c-2.6 0-4-1.4-4-4v-29.2zm.1-12.6v-1.8c0-2.6 1.4-4 4-4h4.2c2.6 0 4 1.4 4 4v1.8c0 2.6-1.4 4-4 4h-4.2c-2.6 0-4-1.4-4-4zm25.8 19.1h-1.1c-2.5 0-3.9-1.4-3.9-4v-1.8c0-2.6 1.4-4 4-4h1.4v-6.7c0-2.6 1.4-4 4-4h4.2c2.6 0 4 1.4 4 4v6.7h3.8c2.6 0 4 1.4 4 4v1.8c0 2.6-1.4 4-3.9 4h-3.9v11.2c0 3.2 2.1 4.4 4.3 4.7 2.9.4 4 1.2 4 4v3.2c0 3-1.8 4-5.1 4-5.5 0-15.6-2.5-15.6-13.5v-13.6z"/><path fill="#ccc" d="M435.5 43.9c0-2.6 1.4-4 4-4h3.9c2.6 0 4 1.4 4 4v3.9c0 2.6-1.4 4-4 4h-3.9c-2.6 0-4-1.4-4-4v-3.9zm22.3-25.3c0-2.6 1.4-4 4-4h4.5c2.6 0 4 1.4 4 4v29.2c0 2.6-1.4 4-4 4h-4.5c-2.6 0-4-1.4-4-4v-29.2zm.1-12.6v-1.8c0-2.6 1.4-4 4-4h4.2c2.6 0 4 1.4 4 4v1.8c0 2.6-1.4 4-4 4h-4.2c-2.6 0-4-1.4-4-4zm42.1 7.8c11.7 0 21.1 7.8 21.1 19.5 0 11.6-9.4 19.3-21 19.3s-21-7.7-21-19.3c0-11.6 9.3-19.5 20.9-19.5zm.1 28.5c4.5 0 8.4-3.4 8.4-8.9 0-5.6-3.9-9.1-8.4-9.1s-8.4 3.5-8.4 9.1c0 5.5 3.9 8.9 8.4 8.9z"/></svg>